<?xml version="1.0" encoding="utf-8"?>
<!-- Generator: Adobe Illustrator 21.0.0, SVG Export Plug-In . SVG Version: 6.00 Build 0)  -->
<svg version="1.1" id="Layer_1" xmlns="http://www.w3.org/2000/svg" xmlns:xlink="http://www.w3.org/1999/xlink" x="0px" y="0px"
	 viewBox="0 0 200 56" style="enable-background:new 0 0 200 56;" xml:space="preserve">
<style type="text/css">
	.st0{fill:#FFFFFF;}
	.st1{fill:#E03C31;}
	.st2{fill:#0047BB;}
	.st3{fill:#05B615;}
	.st4{fill:#FFB81C;}
</style>
<g id="Layer_x0020_1">
	<path class="st0" d="M53.1,28c0,14.2-11.5,25.8-25.8,25.8S1.5,42.2,1.5,28S13,2.2,27.3,2.2S53.1,13.8,53.1,28L53.1,28z"/>
	<path d="M25.1,35.3c0.6-2.8,1.4-5.6,2.3-8.2c-5.5,4-11.3,9.3-15.6,13.5c2.9,3.5,6.9,6.1,11.6,7C23.7,43.3,24.3,39.2,25.1,35.3z"/>
	<path class="st1" d="M16.7,19.7c3.8-2.4,7.9-4.5,12.2-6.3c3.2-1.3,6-2.2,8.2-2.8C34.2,9,30.9,8,27.3,8C16.7,8,8,16.3,7.3,26.8
		C10.2,24.2,13.3,21.9,16.7,19.7L16.7,19.7z"/>
	<path class="st2" d="M43.3,16c-2,4.8-3.4,10.1-4,15.9c-0.4,4-0.5,8-0.3,12.4c5.1-3.6,8.3-9.6,8.3-16.2C47.3,23.5,45.8,19.4,43.3,16
		z"/>
	<path class="st3" d="M8.9,39.9c16.6-16.5,24-19,24-19c-4.9,9.8-6.6,20.5-7,29c0.5,0,1,0,1.5,0c3.3,0,6.5-0.7,9.3-2.1
		c-0.8-8.7-0.9-22.7,5.7-35.8c0,0-20.8,3.6-36.6,19.9C6.2,34.8,7.3,37.5,8.9,39.9L8.9,39.9z"/>
	<path class="st0" d="M43.3,16c-0.6-0.8-1.2-1.5-1.9-2.2c-5.3,11.6-5.5,23.6-5,31.9c0.9-0.4,1.7-1,2.5-1.5
		c-0.2-4.3-0.1-8.4,0.3-12.4C39.9,26.2,41.2,20.8,43.3,16L43.3,16z"/>
	<path class="st0" d="M39.9,12.5c-0.9-0.7-1.8-1.4-2.8-1.9c-2.2,0.6-5,1.5-8.2,2.8c-4.3,1.8-8.4,3.9-12.2,6.3
		c-3.4,2.1-6.5,4.5-9.4,7c0,0.4,0,0.8,0,1.2c0,0.7,0,1.5,0.1,2.2C19.7,18.5,34.3,13.9,39.9,12.5L39.9,12.5z"/>
	<path class="st4" d="M23.4,47.6c0.8,0.2,1.7,0.3,2.6,0.3c0.6-8.2,2.4-18,6.9-27.1c0,0-7,2.4-22.6,17.6c0.5,0.7,1,1.5,1.5,2.1
		c4.3-4.2,10.1-9.6,15.6-13.5c-0.9,2.6-1.7,5.4-2.3,8.2C24.3,39.2,23.7,43.3,23.4,47.6L23.4,47.6z"/>
	<path class="st0" d="M168.5,20.8c0-1.8,1.2-2.9,3-2.9c1.6,0,3.1,0.9,4.3,1.9V14c-1.6-1-3.3-1.5-5.3-1.5c-5.1,0-7.8,4.1-7.8,8.8
		c0,4.4,2.1,6.6,5.5,8.9c1.7,1.2,3.5,2.1,3.5,4.4c0,2-1.5,3.3-3.4,3.3c-1.8,0-3.1-0.6-4.5-1.6V42c1.4,1,3.4,1.5,5.1,1.5
		c5.6,0,8.6-4,8.6-9.3C177.5,26,168.5,25.7,168.5,20.8L168.5,20.8z M191.3,13h-6.2l-7,30h5.9l1.1-5.1h6l1.1,5.1h6.3L191.3,13
		L191.3,13z M186,33.3l1.3-8l0.6-4.5h0.1l0.7,4.5l1.5,8H186z M91.1,14.9c-3.5,0-6.6,1.6-8.9,4.4c-2,2.6-3.2,6.1-3.2,9.5
		c0,3.8,1.1,7.3,3.2,9.9c2.3,2.9,5.4,4.5,9.1,4.5c0.9,0,1.8-0.2,2.6-0.5l0.1-0.1v-5.5l-0.3,0.1c-0.6,0.2-1.3,0.4-2,0.4
		c-4.8,0-6.6-5.3-6.6-8.9c0-4.1,2-8.3,6.6-8.3c0.6,0,1.2,0.1,2,0.3l0.3,0.1v-5.4l-0.1,0C93,15.1,92,14.9,91.1,14.9L91.1,14.9z
		 M65.9,13l-7,30h5.9l1.1-5.1h6L73,43h6.3l-7.2-30H65.9z M66.8,33.3l1.3-8l0.6-4.5h0.1l0.7,4.5l1.5,8H66.8z M112.3,43h5.8V15.2h-5.8
		V43z M96.1,20.7h4.2V43h5.8V20.7h4.3v-5.5H96.1V20.7z M154.2,27.7c0,1,0.1,1.8,0.2,2.7l-6.2-15.2h-5.5V43h5.8l0-12.8l0-1.1
		l-0.2-1.7l6.3,15.6h5.5V15.2h-5.8V27.7L154.2,27.7z M130.4,14.8c-2.7,0-5.1,1.2-6.8,3.3c-2,2.5-3,6.2-3,11c0,4.8,1,8.5,3,11
		c1.7,2.1,4.1,3.3,6.8,3.3c2.7,0,5.1-1.2,6.8-3.3c2-2.5,3-6.2,3-11c0-4.8-1-8.5-3-11C135.5,16,133,14.8,130.4,14.8z M130.4,38
		c-3.4,0-3.6-6.8-3.6-8.9c0-2.7,0.4-8.9,3.6-8.9c3.3,0,3.6,6.2,3.6,8.9C134,31.2,133.8,38,130.4,38z"/>
</g>
</svg>
